<?xml version="1.0" standalone="no"?>
<!DOCTYPE svg PUBLIC "-//W3C//DTD SVG 20010904//EN"
 "http://www.w3.org/TR/2001/REC-SVG-20010904/DTD/svg10.dtd">
<svg version="1.0" xmlns="http://www.w3.org/2000/svg"
 width="699.000000pt" height="304.000000pt" viewBox="0 0 699.000000 304.000000"
 preserveAspectRatio="xMidYMid meet">

<g transform="translate(0.000000,304.000000) scale(0.100000,-0.100000)"
fill="#fff" stroke="none">
<path d="M1680 2329 c-136 -52 -179 -57 -248 -30 -53 21 -126 28 -136 13 -13
-22 -38 -223 -33 -275 3 -32 7 -60 9 -62 12 -12 218 -17 442 -10 l257 7 11 27
c13 35 14 102 4 238 l-9 112 -30 11 c-65 22 -155 12 -267 -31z"/>
<path d="M5006 2340 c-45 -40 -71 -109 -70 -185 1 -72 17 -125 47 -153 21 -20
33 -21 291 -22 216 -2 271 1 276 12 17 30 21 98 15 208 l-7 117 -97 21 c-152
34 -183 37 -244 17 -50 -16 -57 -16 -85 -1 -48 25 -87 20 -126 -14z"/>
<path d="M5746 2362 c-13 -21 -37 -300 -35 -412 l2 -125 -244 -125 c-261 -134
-394 -218 -474 -300 -49 -50 -49 -52 -30 -66 46 -34 157 -58 260 -57 158 1
304 53 568 201 59 33 123 63 141 66 38 7 71 39 63 60 -3 8 -24 24 -46 35 -53
28 -57 36 -26 67 25 25 30 26 96 20 68 -7 69 -7 79 19 16 43 12 67 -29 151
-64 133 -65 174 -6 194 30 10 35 16 35 43 0 19 -15 56 -35 90 -19 32 -35 64
-35 71 0 20 -18 31 -89 55 -64 21 -185 29 -195 13z"/>
<path d="M3193 2344 c-17 -4 -24 -15 -30 -52 -10 -63 -10 -620 1 -1087 l9
-381 36 -17 c20 -9 61 -30 92 -47 31 -17 64 -28 72 -24 9 3 19 22 24 42 10 39
24 44 83 28 14 -3 31 -3 37 2 29 19 40 760 16 1024 l-6 67 -55 18 c-48 15 -57
22 -63 48 -10 41 -29 237 -29 301 0 43 -4 55 -20 64 -23 12 -133 21 -167 14z"/>
<path d="M2255 2301 l-30 -6 0 -128 c0 -70 1 -408 3 -753 l2 -625 35 -15 c48
-20 111 -18 180 6 32 11 80 20 107 20 39 0 48 3 48 18 0 9 5 51 10 92 12 91
13 278 4 771 l-7 376 -58 47 c-68 55 -97 98 -107 158 l-7 43 -75 2 c-41 0 -88
-2 -105 -6z"/>
<path d="M852 2250 c-60 -14 -122 -41 -122 -53 1 -7 7 -39 16 -72 24 -98 28
-280 10 -478 -19 -212 -20 -447 -3 -537 12 -58 11 -71 -5 -115 -20 -58 -22
-86 -8 -137 33 -117 179 -174 313 -123 38 14 53 27 69 59 19 37 20 49 12 156
-5 63 -9 375 -9 692 0 415 -3 580 -11 588 -27 27 -183 39 -262 20z"/>
<path d="M2961 2014 c-11 -25 -43 -83 -71 -128 -27 -46 -67 -119 -87 -162
l-38 -79 -1 -255 c-1 -202 2 -263 14 -292 8 -21 18 -38 22 -38 5 0 20 24 33
54 14 29 54 100 90 156 85 132 102 180 101 295 -2 196 -13 474 -19 484 -12 20
-24 11 -44 -35z"/>
<path d="M4256 1775 c-42 -87 -87 -124 -161 -133 -41 -4 -45 -7 -45 -32 0 -19
15 -46 45 -81 52 -61 57 -96 25 -168 -11 -24 -20 -58 -20 -77 0 -29 3 -34 23
-34 13 0 44 14 70 31 72 47 99 48 189 0 43 -23 87 -41 98 -41 19 0 20 2 6 28
-40 79 -30 128 53 267 43 71 57 101 48 107 -7 4 -47 8 -90 8 -70 0 -80 2 -101
25 -13 14 -33 51 -45 83 -11 33 -29 67 -40 76 -18 17 -20 15 -55 -59z"/>
<path d="M1338 1713 l-66 -4 -7 -75 c-13 -132 11 -228 59 -240 13 -3 77 -4
141 -2 l118 3 20 -38 c11 -21 22 -58 25 -82 4 -40 1 -48 -30 -79 -41 -41 -117
-66 -228 -75 -71 -6 -76 -8 -90 -36 -10 -20 -16 -71 -18 -156 l-4 -126 46 -40
c51 -45 112 -66 156 -53 16 5 50 23 75 40 53 36 91 40 149 16 75 -31 161 -18
235 38 52 39 63 59 50 93 -22 59 -29 125 -39 367 l-10 249 36 39 c46 52 43 76
-17 106 -77 38 -171 53 -359 56 -96 2 -205 2 -242 -1z"/>
<path d="M5155 1140 c-66 -4 -138 -8 -161 -9 l-40 -1 -12 -137 c-10 -121 -6
-212 10 -228 9 -10 321 -35 432 -35 141 0 217 16 291 61 l49 31 111 -7 c94 -5
207 4 222 19 2 2 -4 34 -12 71 -13 55 -14 81 -5 138 8 53 8 72 -1 78 -45 27
-548 38 -884 19z"/>
</g>
</svg>
